<svg width="851" height="351" viewBox="0 0 851 351" fill="none" xmlns="http://www.w3.org/2000/svg">
<path d="M160.232 79.8374L27.4804 38.7374L93.6478 128.342L25.4035 137.427L57.0977 169.386L2.84073 197.379L38.1425 215.656L72.9109 259.28L21.6868 314.043L100.065 289.859L176.565 336.088L213.506 289.859L245.665 318.757L352.534 288.364L435.079 322.743L480.819 305.092L509.899 342.931L531.812 276.088L560.065 305.092L629.065 273.464L673.894 286.007L723.18 238.165L783.058 219.384L765.526 158.588L848.587 102.416L759.084 94.6456L737.363 48.8683L661.476 71.7369L639.565 37.6646L547.746 69.3786L508.895 48.8683L487.027 10.1018L430.495 93.6177L370.983 29.5106L332.064 64.8398L202.939 35.416L160.232 79.8374Z" fill="#3B372D"/>
<path d="M169.377 90.3474L42.5941 52.4745L105.839 134.876L40.6855 143.174L70.9713 172.57L19.1875 198.256L52.9076 215.08L86.1374 255.199L37.2697 305.491L102.715 283.315L178.162 325.562L215.588 279.245L251.128 309.991L353.144 282.139L431.984 313.797L475.644 297.609L503.439 332.407L526.528 264.467L555.515 292.844L622.105 266.478L664.916 278.04L707.001 236.283L769.806 214.052L753.02 158.164L826.638 111.617L747.324 102.51L726.55 60.4218L652.107 83.3994L633.532 49.787L539.369 81.027L502.259 62.1477L481.349 26.5028L427.435 103.216L370.565 44.2532L333.431 76.6932L210.12 49.554L169.377 90.3474Z" fill="#4C418E"/>
</svg>
