<svg width="21" height="21" viewBox="0 0 21 21" fill="none" xmlns="http://www.w3.org/2000/svg">
<path d="M10.5002 18.8335C12.7103 18.8335 14.8299 17.9555 16.3927 16.3927C17.9555 14.8299 18.8335 12.7103 18.8335 10.5002C18.8335 8.29003 17.9555 6.17041 16.3927 4.60761C14.8299 3.0448 12.7103 2.16683 10.5002 2.16683C8.29003 2.16683 6.17041 3.0448 4.60761 4.60761C3.0448 6.17041 2.16683 8.29003 2.16683 10.5002C2.16683 12.7103 3.0448 14.8299 4.60761 16.3927C6.17041 17.9555 8.29003 18.8335 10.5002 18.8335ZM10.5002 0.0834961C11.8681 0.0834961 13.2226 0.352931 14.4865 0.876418C15.7503 1.3999 16.8986 2.16719 17.8659 3.13447C18.8331 4.10174 19.6004 5.25007 20.1239 6.51388C20.6474 7.77769 20.9168 9.13223 20.9168 10.5002C20.9168 13.2628 19.8194 15.9124 17.8659 17.8659C15.9124 19.8194 13.2628 20.9168 10.5002 20.9168C4.73975 20.9168 0.0834961 16.2293 0.0834961 10.5002C0.0834961 7.73749 1.18096 5.08797 3.13447 3.13447C5.08797 1.18096 7.73749 0.0834961 10.5002 0.0834961ZM11.021 5.29183V10.7606L15.7085 13.5418L14.9272 14.8231L9.4585 11.5418V5.29183H11.021Z" fill="#FFF0D0" fill-opacity="0.9"/>
</svg>
