<svg width="34" height="34" viewBox="0 0 34 34" fill="none" xmlns="http://www.w3.org/2000/svg">
<g clip-path="url(#clip0_610_780)">
<path d="M4.32136 13.1892C4.26114 13.0093 4.23764 12.8192 4.25226 12.6302C4.26688 12.4411 4.31932 12.2568 4.40647 12.0884C4.49362 11.9199 4.6137 11.7707 4.7596 11.6495C4.90549 11.5284 5.07424 11.4377 5.25582 11.383C5.4374 11.3282 5.62812 11.3105 5.81668 11.3309C6.00524 11.3512 6.1878 11.4092 6.35352 11.5014C6.51925 11.5936 6.66477 11.7182 6.78147 11.8677C6.89816 12.0172 6.98365 12.1886 7.03286 12.3718C9.98802 22.2686 24.0074 22.27 26.9654 12.3774C27.0184 12.199 27.106 12.0328 27.2233 11.8883C27.3405 11.7437 27.4851 11.6237 27.6488 11.535C27.8124 11.4464 27.9919 11.3908 28.1771 11.3715C28.3622 11.3522 28.5493 11.3696 28.7277 11.4226C28.9061 11.4756 29.0723 11.5633 29.2169 11.6805C29.3614 11.7978 29.4814 11.9424 29.5701 12.106C29.6588 12.2697 29.7143 12.4492 29.7336 12.6343C29.7529 12.8194 29.7355 13.0065 29.6825 13.1849C29.1671 14.9574 28.2929 16.6051 27.1141 18.0257L28.9204 19.8333C29.1784 20.1005 29.3212 20.4584 29.318 20.8298C29.3148 21.2013 29.1658 21.5566 28.9031 21.8193C28.6404 22.0819 28.2851 22.2309 27.9137 22.2341C27.5422 22.2374 27.1844 22.0946 26.9172 21.8365L25.0599 19.9793C24.0576 20.7351 22.9504 21.3407 21.7733 21.777L22.279 23.6683C22.333 23.8497 22.35 24.04 22.3292 24.2282C22.3083 24.4163 22.25 24.5983 22.1577 24.7635C22.0653 24.9287 21.9408 25.0737 21.7914 25.1899C21.6421 25.3062 21.471 25.3914 21.2882 25.4404C21.1054 25.4894 20.9146 25.5014 20.7272 25.4754C20.5397 25.4495 20.3593 25.3863 20.1967 25.2895C20.034 25.1927 19.8924 25.0643 19.7802 24.9119C19.668 24.7595 19.5875 24.5862 19.5434 24.4021L19.0278 22.4797C17.6862 22.678 16.3149 22.678 14.9733 22.4797L14.4576 24.4021C14.4135 24.5862 14.333 24.7595 14.2208 24.9119C14.1086 25.0643 13.967 25.1927 13.8044 25.2895C13.6418 25.3863 13.4614 25.4495 13.2739 25.4754C13.0864 25.5014 12.8957 25.4894 12.7129 25.4404C12.5301 25.3914 12.3589 25.3062 12.2096 25.1899C12.0603 25.0737 11.9358 24.9287 11.8434 24.7635C11.751 24.5983 11.6927 24.4163 11.6719 24.2282C11.651 24.04 11.6681 23.8497 11.722 23.6683L12.2278 21.777C11.0506 21.3402 9.9434 20.7341 8.94111 19.9778L7.08527 21.8365C6.81964 22.1025 6.45921 22.2521 6.08328 22.2524C5.70734 22.2527 5.3467 22.1036 5.08069 21.8379C4.81468 21.5723 4.66509 21.2119 4.66482 20.8359C4.66455 20.46 4.81364 20.0994 5.07927 19.8333L6.88552 18.0271C5.77486 16.7011 4.88802 15.0889 4.31852 13.1906L4.32136 13.1892Z" fill="#4C418E"/>
</g>
<defs>
<clipPath id="clip0_610_780">
<rect width="34" height="34" fill="white"/>
</clipPath>
</defs>
</svg>
