<svg width="54" height="54" viewBox="0 0 54 54" fill="none" xmlns="http://www.w3.org/2000/svg">
<path fill-rule="evenodd" clip-rule="evenodd" d="M46.2744 10.2744C46.4418 10.1071 46.5745 9.90839 46.6651 9.68973C46.7557 9.47107 46.8023 9.23671 46.8023 9.00003C46.8023 8.76335 46.7557 8.52899 46.6651 8.31033C46.5745 8.09167 46.4418 7.89298 46.2744 7.72563C46.1071 7.55827 45.9084 7.42552 45.6897 7.33494C45.4711 7.24437 45.2367 7.19775 45 7.19775C44.7633 7.19775 44.529 7.24437 44.3103 7.33494C44.0917 7.42552 43.893 7.55827 43.7256 7.72563L27 24.4548L10.2744 7.72563C10.1071 7.55827 9.90839 7.42552 9.68973 7.33494C9.47107 7.24437 9.23671 7.19775 9.00003 7.19775C8.76335 7.19775 8.52899 7.24437 8.31033 7.33494C8.09167 7.42552 7.89298 7.55827 7.72563 7.72563C7.55827 7.89298 7.42552 8.09167 7.33494 8.31033C7.24437 8.52899 7.19775 8.76335 7.19775 9.00003C7.19775 9.23671 7.24437 9.47107 7.33494 9.68973C7.42552 9.90839 7.55827 10.1071 7.72563 10.2744L24.4548 27L7.72563 43.7256C7.38764 44.0636 7.19775 44.522 7.19775 45C7.19775 45.478 7.38764 45.9364 7.72563 46.2744C8.06362 46.6124 8.52203 46.8023 9.00003 46.8023C9.47802 46.8023 9.93644 46.6124 10.2744 46.2744L27 29.5452L43.7256 46.2744C44.0636 46.6124 44.522 46.8023 45 46.8023C45.478 46.8023 45.9364 46.6124 46.2744 46.2744C46.6124 45.9364 46.8023 45.478 46.8023 45C46.8023 44.522 46.6124 44.0636 46.2744 43.7256L29.5452 27L46.2744 10.2744Z" fill="#FFF0D0"/>
</svg>
