<svg width="1902" height="1062" viewBox="0 0 1902 1062" fill="none" xmlns="http://www.w3.org/2000/svg">
<path d="M400.842 21.2598L448.382 94.3473L566.665 12.8547L686.143 69.2179L755.125 21.2598L879.898 69.2179L957.518 12.8547L1002.45 113.786L1051.68 21.2598L1154.12 77.2795L1285.99 12.8547L1339.75 57.8411L1409.93 21.2598L1527.08 69.2179L1653.29 0L1737.05 57.8411L1883.63 12.8547L1810.75 157.718L1902 215.719L1737.05 303.429L1902 337.564L1820.82 408.68L1902 501.605L1795.91 547.12L1883.63 659.483L1716.67 723.013L1902 755.253L1832.67 819.257L1902 913.13L1810.75 901.81L1883.63 1042.72L1737.05 989.321L1696.86 1024.42L1527.08 952.955L1451.24 1042.72L1381.07 976.466L1262.22 1024.42L1170.53 989.321L1076.02 1062L1027.35 976.466L959.999 1024.42L871.145 976.466L733.054 1062L711.548 952.955L636.277 1035.3L544.593 976.466L497.72 1051.12L418.322 989.321L300.41 1024.42L273.154 952.955L95.9898 1042.72L107.84 901.81L0 864.771L107.84 785.596L43.8478 714.922L158.616 604.013L2.98007 538.911L95.9898 453.721L43.8478 354.632L158.616 239.424L2.98007 215.719L107.84 157.718L0.00105355 0L136.874 57.8411L201.062 12.8547L330.098 57.8411L400.842 21.2598Z" fill="#DB402F"/>
</svg>
