<svg width="309" height="134" viewBox="0 0 309 134" fill="none" xmlns="http://www.w3.org/2000/svg">
<path d="M274.465 47.2245L300 17.7551L259.406 24.3469L265.626 10L243.364 24.3469L222.412 19.3061L201.788 31.7143L183.127 19.3061L157.592 31.7143L141.551 19.3061L126.492 39.4694L110.45 10L83.2782 31.7143V10L64.6179 31.7143L45.6302 27.0612L32.8626 47.2245H7L21.4045 69.7143L13.8458 101.122L51.1955 90.6531V124L71.1654 101.122L81.6413 116.245L101.611 108.878L116.67 116.245L139.914 95.3061L168.723 108.878L188.693 101.122L208.663 116.245L220.775 108.878L257.769 124L251.876 101.122L283.304 90.6531L274.465 78.2449L293.78 64.2857L274.465 47.2245Z" fill="#4C418E" stroke="#DB402F" stroke-width="7"/>
</svg>
