<svg width="34" height="34" viewBox="0 0 34 34" fill="none" xmlns="http://www.w3.org/2000/svg">
<g clip-path="url(#clip0_610_789)">
<path d="M4.32136 20.8108C4.26114 20.9907 4.23764 21.1808 4.25226 21.3698C4.26688 21.5589 4.31932 21.7432 4.40647 21.9116C4.49362 22.0801 4.6137 22.2293 4.7596 22.3505C4.90549 22.4716 5.07424 22.5623 5.25582 22.617C5.4374 22.6718 5.62812 22.6895 5.81668 22.6691C6.00524 22.6488 6.1878 22.5908 6.35352 22.4986C6.51925 22.4064 6.66477 22.2818 6.78147 22.1323C6.89816 21.9828 6.98365 21.8114 7.03286 21.6282C9.98802 11.7314 24.0074 11.73 26.9654 21.6226C27.0184 21.801 27.106 21.9672 27.2233 22.1117C27.3405 22.2563 27.4851 22.3763 27.6488 22.465C27.8124 22.5536 27.9919 22.6092 28.1771 22.6285C28.3622 22.6478 28.5493 22.6304 28.7277 22.5774C28.9061 22.5244 29.0723 22.4367 29.2169 22.3195C29.3614 22.2022 29.4814 22.0576 29.5701 21.894C29.6588 21.7303 29.7143 21.5508 29.7336 21.3657C29.7529 21.1806 29.7355 20.9935 29.6825 20.8151C29.1671 19.0426 28.2929 17.3949 27.1141 15.9743L28.9204 14.1667C29.1784 13.8995 29.3212 13.5416 29.318 13.1702C29.3148 12.7987 29.1658 12.4434 28.9031 12.1807C28.6404 11.9181 28.2851 11.7691 27.9137 11.7659C27.5422 11.7626 27.1844 11.9054 26.9172 12.1635L25.0599 14.0207C24.0576 13.2649 22.9504 12.6593 21.7733 12.223L22.279 10.3317C22.333 10.1503 22.35 9.95995 22.3292 9.77185C22.3083 9.58374 22.25 9.40172 22.1577 9.23653C22.0653 9.07133 21.9408 8.92633 21.7914 8.81006C21.6421 8.69379 21.471 8.60863 21.2882 8.55959C21.1054 8.51055 20.9146 8.49864 20.7272 8.52456C20.5397 8.55047 20.3593 8.61369 20.1967 8.71048C20.034 8.80727 19.8924 8.93566 19.7802 9.08808C19.668 9.24049 19.5875 9.41385 19.5434 9.5979L19.0278 11.5203C17.6862 11.322 16.3149 11.322 14.9733 11.5203L14.4576 9.5979C14.4135 9.41385 14.333 9.24049 14.2208 9.08808C14.1086 8.93566 13.967 8.80727 13.8044 8.71048C13.6418 8.61369 13.4614 8.55047 13.2739 8.52456C13.0864 8.49864 12.8957 8.51055 12.7129 8.55959C12.5301 8.60863 12.3589 8.69379 12.2096 8.81006C12.0603 8.92633 11.9358 9.07133 11.8434 9.23653C11.751 9.40172 11.6927 9.58374 11.6719 9.77185C11.651 9.95995 11.6681 10.1503 11.722 10.3317L12.2278 12.223C11.0506 12.6598 9.9434 13.2659 8.94111 14.0222L7.08527 12.1635C6.81964 11.8975 6.45921 11.7479 6.08328 11.7476C5.70734 11.7473 5.3467 11.8964 5.08069 12.1621C4.81468 12.4277 4.66509 12.7881 4.66482 13.1641C4.66455 13.54 4.81364 13.9006 5.07927 14.1667L6.88552 15.9729C5.77486 17.2989 4.88802 18.9111 4.31852 20.8094L4.32136 20.8108Z" fill="#4C418E"/>
<circle cx="17" cy="19.8333" r="3.25" stroke="#4C418E" stroke-width="2"/>
</g>
<defs>
<clipPath id="clip0_610_789">
<rect width="34" height="34" fill="white" transform="matrix(1 0 0 -1 0 34)"/>
</clipPath>
</defs>
</svg>
