<svg width="685" height="370" viewBox="0 0 685 370" fill="none" xmlns="http://www.w3.org/2000/svg">
<path d="M643.5 159.205L684.993 130.049L616.768 109.928L664.875 43.1896L554.806 60.3014L530.287 5.6781L484.044 73.604L433.588 43.1896L358.674 105.722L296.499 0.787273L237.878 105.781L157.329 85.4937L131.537 159.205L19.8895 130.048L61.1889 199.686L0.279164 253.803L75.9428 277.896L19.8029 357.297L115.632 300.559L158.346 369.987L207.675 297.386L259.232 340.789L302.63 290.575L355.449 313.276L432.101 271.323L518.085 302.359L527.893 248.228L594.066 268.418L618.787 205.97L684.993 218.694L643.5 159.205Z" fill="#4C418E"/>
</svg>
