<svg width="337" height="145" viewBox="0 0 337 145" fill="none" xmlns="http://www.w3.org/2000/svg">
<path d="M36.9754 50.8163L9 18.5034L53.4737 25.7313L46.6592 10L71.048 25.7313L94.0022 20.2041L116.598 33.8095L137.041 20.2041L165.017 33.8095L182.591 20.2041L199.089 42.3129L216.664 10L246.432 33.8095V10L266.876 33.8095L287.678 28.7075L301.666 50.8163H330L314.219 75.4762L322.5 109.915L281.581 98.4354V135L259.703 109.915L248.226 126.497L226.347 118.418L209.849 126.497L184.384 103.537L152.822 118.418L130.944 109.915L109.066 126.497L95.7955 118.418L55.267 135L61.7229 109.915L27.2916 98.4354L36.9754 84.8299L15.8145 69.5238L36.9754 50.8163Z" fill="#4C418E" stroke="#DB402F" stroke-width="7"/>
</svg>
