<svg width="63" height="62" viewBox="0 0 63 62" fill="none" xmlns="http://www.w3.org/2000/svg">
<path d="M31.25 0C14 0 0 13.8133 0 30.8333C0 47.8533 14 61.6667 31.25 61.6667C48.5 61.6667 62.5 47.8533 62.5 30.8333C62.5 13.8133 48.5 0 31.25 0ZM45.75 20.9667C45.2812 25.8383 43.25 37.6783 42.2188 43.1358C41.7812 45.4483 40.9062 46.2192 40.0938 46.3117C38.2812 46.4658 36.9062 45.14 35.1562 43.9992C32.4062 42.2108 30.8438 41.1008 28.1875 39.3742C25.0938 37.37 27.0938 36.26 28.875 34.4717C29.3438 34.0092 37.3438 26.825 37.5 26.1775C37.5217 26.0794 37.5188 25.9776 37.4916 25.8809C37.4644 25.7842 37.4136 25.6955 37.3438 25.6225C37.1562 25.4683 36.9062 25.53 36.6875 25.5608C36.4062 25.6225 32.0312 28.49 23.5 34.1633C22.25 34.9958 21.125 35.4275 20.125 35.3967C19 35.3658 16.875 34.78 15.2812 34.2558C13.3125 33.6392 11.7812 33.3 11.9062 32.2208C11.9688 31.6658 12.75 31.1108 14.2188 30.525C23.3438 26.6092 29.4062 24.0192 32.4375 22.7858C41.125 19.2092 42.9063 18.5925 44.0938 18.5925C44.3438 18.5925 44.9375 18.6542 45.3125 18.9625C45.625 19.2092 45.7188 19.5483 45.75 19.795C45.7188 19.98 45.7812 20.535 45.75 20.9667Z" fill="#4C418E"/>
</svg>
