<svg width="61" height="61" viewBox="0 0 61 61" fill="none" xmlns="http://www.w3.org/2000/svg">
<path d="M39.5908 0.916504H21.4414C4.857 0.916504 0.916504 4.85996 0.916504 21.4089V39.5612C0.916504 56.1397 4.83038 60.0832 21.4089 60.0832H39.5612C56.1397 60.0832 60.0832 56.1693 60.0832 39.5908V21.4414C60.0832 4.857 56.1693 0.916504 39.5908 0.916504ZM48.6818 43.1319H44.3655C42.7325 43.1319 42.2415 41.8095 39.3127 38.8808C36.7567 36.4165 35.6769 36.1088 35.029 36.1088C34.1356 36.1088 33.8901 36.3544 33.8901 37.588V41.4693C33.8901 42.5195 33.5499 43.1349 30.8075 43.1349C28.146 42.956 25.5651 42.1474 23.2774 40.7757C20.9896 39.404 19.0605 37.5084 17.6488 35.245C14.2975 31.0738 11.9657 26.1781 10.8388 20.9474C10.8388 20.2995 11.0843 19.7138 12.3179 19.7138H16.6341C17.7435 19.7138 18.1429 20.2078 18.5748 21.3468C20.6693 27.5119 24.243 32.8724 25.6925 32.8724C26.2487 32.8724 26.4913 32.6269 26.4913 31.2394V24.8908C26.3079 21.9946 24.7695 21.7491 24.7695 20.7018C24.7893 20.4256 24.9159 20.168 25.1224 19.9835C25.329 19.799 25.5993 19.7023 25.876 19.7138H32.6565C33.5824 19.7138 33.8901 20.1753 33.8901 21.2846V29.852C33.8901 30.7779 34.2895 31.0856 34.5675 31.0856C35.1237 31.0856 35.5527 30.7779 36.5703 29.7603C38.7561 27.0946 40.542 24.1249 41.8717 20.9444C42.0076 20.5624 42.2648 20.2353 42.6039 20.0131C42.9431 19.7909 43.3457 19.6858 43.7502 19.7138H48.0664C49.3592 19.7138 49.6343 20.3616 49.3592 21.2846C47.7898 24.8004 45.8479 28.1377 43.5668 31.2394C43.1023 31.9494 42.916 32.3192 43.5668 33.1505C43.9958 33.7984 45.5075 35.0616 46.5251 36.2627C48.004 37.7378 49.2321 39.4446 50.1609 41.3155C50.5307 42.5166 49.9124 43.1319 48.6818 43.1319Z" fill="#4C418E"/>
</svg>
